<?xml version="1.0" encoding="UTF-8"?><svg xmlns="http://www.w3.org/2000/svg" xmlns:xlink="http://www.w3.org/1999/xlink" width="150" zoomAndPan="magnify" viewBox="0 0 150 149.999998" height="149.999998" preserveAspectRatio="xMidYMid meet" version="1.0"><defs><clipPath id="clip-0"><path d="M 3 3.5625 L 147 3.5625 L 147 146.8125 L 3 146.8125 Z M 3 3.5625 " clip-rule="nonzero"/></clipPath></defs><g clip-path="url(#clip-0)"><path fill="rgb(24.708557%, 31.759644%, 70.979309%)" d="M 75 3.5625 C 73.832031 3.5625 72.667969 3.589844 71.503906 3.648438 C 70.339844 3.707031 69.175781 3.792969 68.015625 3.90625 C 66.855469 4.019531 65.699219 4.164062 64.542969 4.335938 C 63.390625 4.507812 62.242188 4.707031 61.097656 4.933594 C 59.953125 5.164062 58.816406 5.417969 57.683594 5.703125 C 56.554688 5.988281 55.429688 6.300781 54.316406 6.640625 C 53.199219 6.976562 52.089844 7.34375 50.992188 7.738281 C 49.894531 8.132812 48.808594 8.554688 47.730469 9 C 46.652344 9.449219 45.585938 9.921875 44.53125 10.421875 C 43.476562 10.921875 42.4375 11.449219 41.410156 12 C 40.378906 12.550781 39.367188 13.125 38.367188 13.726562 C 37.363281 14.328125 36.378906 14.953125 35.410156 15.601562 C 34.441406 16.253906 33.488281 16.925781 32.550781 17.621094 C 31.613281 18.320312 30.695312 19.039062 29.792969 19.78125 C 28.890625 20.523438 28.007812 21.285156 27.144531 22.070312 C 26.28125 22.855469 25.4375 23.660156 24.613281 24.488281 C 23.789062 25.316406 22.984375 26.160156 22.199219 27.027344 C 21.417969 27.894531 20.65625 28.78125 19.914062 29.683594 C 19.175781 30.585938 18.457031 31.507812 17.765625 32.449219 C 17.070312 33.386719 16.398438 34.34375 15.75 35.316406 C 15.101562 36.289062 14.476562 37.273438 13.878906 38.277344 C 13.277344 39.28125 12.703125 40.296875 12.15625 41.328125 C 11.605469 42.359375 11.082031 43.40625 10.582031 44.460938 C 10.082031 45.519531 9.609375 46.585938 9.164062 47.667969 C 8.71875 48.746094 8.300781 49.839844 7.90625 50.9375 C 7.511719 52.039062 7.148438 53.148438 6.808594 54.269531 C 6.46875 55.386719 6.160156 56.515625 5.875 57.648438 C 5.59375 58.78125 5.335938 59.921875 5.109375 61.070312 C 4.882812 62.21875 4.683594 63.367188 4.511719 64.527344 C 4.339844 65.683594 4.199219 66.84375 4.082031 68.007812 C 3.96875 69.167969 3.882812 70.335938 3.828125 71.503906 C 3.769531 72.671875 3.742188 73.839844 3.742188 75.007812 C 3.742188 76.179688 3.769531 77.347656 3.828125 78.515625 C 3.882812 79.683594 3.96875 80.847656 4.082031 82.011719 C 4.199219 83.175781 4.339844 84.335938 4.511719 85.492188 C 4.683594 86.648438 4.882812 87.800781 5.109375 88.949219 C 5.335938 90.09375 5.59375 91.234375 5.875 92.367188 C 6.160156 93.503906 6.46875 94.628906 6.808594 95.75 C 7.148438 96.867188 7.511719 97.976562 7.90625 99.078125 C 8.300781 100.179688 8.71875 101.269531 9.164062 102.351562 C 9.609375 103.429688 10.082031 104.5 10.582031 105.554688 C 11.082031 106.613281 11.605469 107.65625 12.15625 108.6875 C 12.703125 109.71875 13.277344 110.738281 13.878906 111.738281 C 14.476562 112.742188 15.101562 113.730469 15.75 114.703125 C 16.398438 115.675781 17.070312 116.628906 17.765625 117.570312 C 18.457031 118.507812 19.175781 119.429688 19.914062 120.335938 C 20.65625 121.238281 21.417969 122.121094 22.199219 122.988281 C 22.984375 123.855469 23.789062 124.703125 24.613281 125.527344 C 25.4375 126.355469 26.28125 127.160156 27.144531 127.945312 C 28.007812 128.730469 28.890625 129.496094 29.792969 130.238281 C 30.695312 130.980469 31.613281 131.699219 32.550781 132.394531 C 33.488281 133.089844 34.441406 133.765625 35.410156 134.414062 C 36.378906 135.0625 37.363281 135.6875 38.367188 136.289062 C 39.367188 136.890625 40.378906 137.46875 41.410156 138.019531 C 42.4375 138.570312 43.476562 139.097656 44.53125 139.59375 C 45.585938 140.09375 46.652344 140.570312 47.730469 141.015625 C 48.808594 141.464844 49.894531 141.886719 50.992188 142.277344 C 52.089844 142.671875 53.199219 143.039062 54.316406 143.378906 C 55.429688 143.71875 56.554688 144.03125 57.683594 144.3125 C 58.816406 144.597656 59.953125 144.855469 61.097656 145.082031 C 62.242188 145.308594 63.390625 145.511719 64.542969 145.683594 C 65.699219 145.855469 66.855469 145.996094 68.015625 146.109375 C 69.175781 146.226562 70.339844 146.3125 71.503906 146.371094 C 72.667969 146.425781 73.832031 146.457031 75 146.457031 C 76.167969 146.457031 77.332031 146.425781 78.496094 146.371094 C 79.660156 146.3125 80.824219 146.226562 81.984375 146.109375 C 83.144531 145.996094 84.300781 145.855469 85.457031 145.683594 C 86.609375 145.511719 87.757812 145.308594 88.902344 145.082031 C 90.046875 144.855469 91.183594 144.597656 92.316406 144.3125 C 93.445312 144.03125 94.570312 143.71875 95.683594 143.378906 C 96.800781 143.039062 97.910156 142.671875 99.007812 142.277344 C 100.105469 141.886719 101.191406 141.464844 102.269531 141.015625 C 103.347656 140.570312 104.414062 140.09375 105.46875 139.59375 C 106.523438 139.097656 107.5625 138.570312 108.589844 138.019531 C 109.621094 137.46875 110.632812 136.890625 111.632812 136.289062 C 112.636719 135.6875 113.621094 135.0625 114.589844 134.414062 C 115.558594 133.765625 116.511719 133.089844 117.449219 132.394531 C 118.386719 131.699219 119.304688 130.980469 120.207031 130.238281 C 121.109375 129.496094 121.992188 128.730469 122.855469 127.945312 C 123.71875 127.160156 124.5625 126.355469 125.386719 125.527344 C 126.210938 124.703125 127.015625 123.855469 127.800781 122.988281 C 128.582031 122.121094 129.34375 121.238281 130.085938 120.335938 C 130.824219 119.429688 131.542969 118.507812 132.234375 117.570312 C 132.929688 116.628906 133.601562 115.675781 134.25 114.703125 C 134.898438 113.730469 135.523438 112.742188 136.121094 111.738281 C 136.722656 110.738281 137.296875 109.71875 137.84375 108.6875 C 138.394531 107.65625 138.917969 106.613281 139.417969 105.554688 C 139.917969 104.5 140.390625 103.429688 140.835938 102.351562 C 141.28125 101.269531 141.699219 100.179688 142.09375 99.078125 C 142.488281 97.976562 142.851562 96.867188 143.191406 95.75 C 143.53125 94.628906 143.839844 93.503906 144.125 92.367188 C 144.40625 91.234375 144.664062 90.09375 144.890625 88.949219 C 145.117188 87.800781 145.316406 86.648438 145.488281 85.492188 C 145.660156 84.335938 145.800781 83.175781 145.917969 82.011719 C 146.03125 80.847656 146.117188 79.683594 146.171875 78.515625 C 146.230469 77.347656 146.257812 76.179688 146.257812 75.007812 C 146.257812 73.839844 146.230469 72.671875 146.171875 71.503906 C 146.117188 70.335938 146.03125 69.167969 145.917969 68.007812 C 145.800781 66.84375 145.660156 65.683594 145.488281 64.527344 C 145.316406 63.367188 145.117188 62.21875 144.890625 61.070312 C 144.664062 59.921875 144.40625 58.78125 144.125 57.648438 C 143.839844 56.515625 143.53125 55.386719 143.191406 54.269531 C 142.851562 53.148438 142.488281 52.039062 142.09375 50.9375 C 141.699219 49.839844 141.28125 48.746094 140.835938 47.667969 C 140.390625 46.585938 139.917969 45.519531 139.417969 44.460938 C 138.917969 43.40625 138.394531 42.359375 137.84375 41.328125 C 137.296875 40.296875 136.722656 39.28125 136.121094 38.277344 C 135.523438 37.273438 134.898438 36.289062 134.25 35.316406 C 133.601562 34.34375 132.929688 33.386719 132.234375 32.449219 C 131.542969 31.507812 130.824219 30.585938 130.085938 29.683594 C 129.34375 28.78125 128.582031 27.894531 127.800781 27.027344 C 127.015625 26.160156 126.210938 25.316406 125.386719 24.488281 C 124.5625 23.660156 123.71875 22.855469 122.855469 22.070312 C 121.992188 21.285156 121.109375 20.523438 120.207031 19.78125 C 119.304688 19.039062 118.386719 18.320312 117.449219 17.621094 C 116.511719 16.925781 115.558594 16.253906 114.589844 15.601562 C 113.621094 14.953125 112.636719 14.328125 111.632812 13.726562 C 110.632812 13.125 109.621094 12.550781 108.589844 12 C 107.5625 11.449219 106.523438 10.921875 105.46875 10.421875 C 104.414062 9.921875 103.347656 9.449219 102.269531 9 C 101.191406 8.554688 100.105469 8.132812 99.007812 7.738281 C 97.910156 7.34375 96.800781 6.976562 95.683594 6.640625 C 94.570312 6.300781 93.445312 5.988281 92.316406 5.703125 C 91.183594 5.417969 90.046875 5.164062 88.902344 4.933594 C 87.757812 4.707031 86.609375 4.507812 85.457031 4.335938 C 84.300781 4.164062 83.144531 4.019531 81.984375 3.90625 C 80.824219 3.792969 79.660156 3.707031 78.496094 3.648438 C 77.332031 3.589844 76.167969 3.5625 75 3.5625 Z M 75 3.5625 " fill-opacity="1" fill-rule="nonzero"/></g><path fill="rgb(100%, 100%, 100%)" d="M 94.125 75.007812 L 82.125 75.007812 L 82.125 117.875 L 64.3125 117.875 L 64.3125 75.007812 L 53.621094 75.007812 L 53.621094 60.71875 L 64.3125 60.71875 L 64.3125 52.109375 C 64.316406 39.578125 69.507812 32.140625 84.234375 32.140625 L 96.378906 32.140625 L 96.378906 46.429688 L 88.230469 46.429688 C 82.496094 46.429688 82.125 48.574219 82.125 52.585938 L 82.125 60.71875 L 96.378906 60.71875 Z M 94.125 75.007812 " fill-opacity="1" fill-rule="nonzero"/></svg>