<?xml version="1.0" encoding="UTF-8"?><svg xmlns="http://www.w3.org/2000/svg" xmlns:xlink="http://www.w3.org/1999/xlink" width="150" zoomAndPan="magnify" viewBox="0 0 150 149.999998" height="149.999998" preserveAspectRatio="xMidYMid meet" version="1.0"><defs><clipPath id="clip-0"><path d="M 1.96875 1.96875 L 148.21875 1.96875 L 148.21875 148.21875 L 1.96875 148.21875 Z M 1.96875 1.96875 " clip-rule="nonzero"/></clipPath></defs><g clip-path="url(#clip-0)"><path fill="rgb(10.978699%, 25.099182%, 74.899292%)" d="M 75.09375 1.96875 C 34.707031 1.96875 1.96875 34.707031 1.96875 75.09375 C 1.96875 115.476562 34.707031 148.21875 75.09375 148.21875 C 115.476562 148.21875 148.21875 115.476562 148.21875 75.09375 C 148.21875 34.707031 115.476562 1.96875 75.09375 1.96875 Z M 113.707031 108.664062 L 107.851562 114.519531 C 106.808594 115.5625 103.746094 116.214844 103.648438 116.214844 C 85.125 116.375 67.289062 109.101562 54.1875 95.996094 C 41.046875 82.847656 33.761719 64.953125 33.960938 46.367188 C 33.960938 46.359375 34.628906 43.386719 35.671875 42.351562 L 41.527344 36.496094 C 43.671875 34.34375 47.785156 33.371094 50.667969 34.332031 L 51.902344 34.746094 C 54.777344 35.707031 57.792969 38.886719 58.585938 41.8125 L 61.53125 52.625 C 62.328125 55.5625 61.257812 59.738281 59.113281 61.882812 L 55.203125 65.789062 C 59.042969 80 70.191406 91.152344 84.402344 94.996094 L 88.3125 91.089844 C 90.464844 88.9375 94.640625 87.867188 97.570312 88.660156 L 108.378906 91.613281 C 111.304688 92.417969 114.484375 95.417969 115.449219 98.292969 L 115.859375 99.542969 C 116.8125 102.414062 115.851562 106.53125 113.707031 108.664062 Z M 113.707031 108.664062 " fill-opacity="1" fill-rule="nonzero"/></g></svg>