<?xml version="1.0" encoding="UTF-8"?><svg xmlns="http://www.w3.org/2000/svg" xmlns:xlink="http://www.w3.org/1999/xlink" width="150" zoomAndPan="magnify" viewBox="0 0 150 149.999998" height="149.999998" preserveAspectRatio="xMidYMid meet" version="1.0"><path fill="rgb(20.779419%, 76.858521%, 17.248535%)" d="M 17.359375 117.425781 L 6.117188 146.65625 L 35.683594 135.261719 C 47.128906 142.984375 60.914062 147.496094 75.75 147.496094 C 115.347656 147.496094 147.496094 115.347656 147.496094 75.75 C 147.496094 36.152344 115.347656 4.003906 75.75 4.003906 C 36.148438 4.003906 4.003906 36.152344 4.003906 75.75 C 4.003906 91.285156 8.949219 105.671875 17.359375 117.425781 Z M 17.359375 117.425781 " fill-opacity="1" fill-rule="evenodd"/><path fill="rgb(91.369629%, 91.369629%, 91.369629%)" d="M 21.09375 118.863281 C 21.578125 117.605469 21.394531 116.191406 20.613281 115.097656 C 12.675781 104 8.007812 90.417969 8.007812 75.75 C 8.007812 38.363281 38.359375 8.007812 75.75 8.007812 C 113.136719 8.007812 143.492188 38.363281 143.492188 75.75 C 143.492188 113.136719 113.136719 143.492188 75.75 143.492188 C 61.746094 143.492188 48.726562 139.234375 37.921875 131.941406 C 36.839844 131.210938 35.464844 131.054688 34.242188 131.527344 L 13.089844 139.679688 Z M 12.859375 117.964844 L 3.285156 149.488281 L 35.210938 139.734375 C 46.933594 147.183594 60.839844 151.5 75.75 151.5 C 117.554688 151.5 151.5 117.558594 151.5 75.75 C 151.5 33.941406 117.554688 0 75.75 0 C 33.941406 0 0 33.941406 0 75.75 C 0 91.375 4.742188 105.898438 12.859375 117.964844 Z M 12.859375 117.964844 " fill-opacity="1" fill-rule="evenodd"/><path fill="rgb(100%, 100%, 100%)" d="M 44.296875 43.183594 C 38.15625 49.328125 36.679688 58.734375 40.648438 66.460938 C 40.660156 66.476562 40.667969 66.492188 40.675781 66.511719 C 44.0625 72.785156 49.914062 81.265625 60.265625 91.617188 C 70.429688 101.78125 78.730469 107.539062 84.917969 110.820312 C 84.925781 110.828125 84.933594 110.832031 84.945312 110.835938 C 92.652344 114.816406 102.046875 113.355469 108.179688 107.222656 C 110.3125 105.175781 112.445312 103.042969 113.945312 101.546875 C 116.1875 99.304688 116.1875 95.667969 113.945312 93.429688 L 102.464844 81.945312 C 100.222656 79.703125 96.589844 79.703125 94.347656 81.945312 L 86.847656 89.445312 C 84.675781 89.242188 77.207031 87.285156 70.902344 80.976562 C 64.296875 74.371094 62.984375 67.773438 62.054688 64.628906 L 69.542969 57.140625 C 71.78125 54.898438 71.78125 51.265625 69.542969 49.023438 L 58.058594 37.539062 C 55.816406 35.300781 52.183594 35.300781 49.941406 37.539062 Z M 44.296875 43.183594 " fill-opacity="1" fill-rule="evenodd"/></svg>